<?xml version="1.0" encoding="UTF-8" standalone="no"?>
<svg
   xmlns:dc="http://purl.org/dc/elements/1.1/"
   xmlns:cc="http://creativecommons.org/ns#"
   xmlns:rdf="http://www.w3.org/1999/02/22-rdf-syntax-ns#"
   xmlns:svg="http://www.w3.org/2000/svg"
   xmlns="http://www.w3.org/2000/svg"
   xmlns:sodipodi="http://sodipodi.sourceforge.net/DTD/sodipodi-0.dtd"
   xmlns:inkscape="http://www.inkscape.org/namespaces/inkscape"
   width="16"
   height="16"
   viewBox="0 0 16 16"
   version="1.1"
   id="svg8"
   sodipodi:docname="fcitx-kbd.svg"
   inkscape:version="1.0 (4035a4fb49, 2020-05-01)">
  <metadata
     id="metadata14">
    <rdf:RDF>
      <cc:Work
         rdf:about="">
        <dc:format>image/svg+xml</dc:format>
        <dc:type
           rdf:resource="http://purl.org/dc/dcmitype/StillImage" />
      </cc:Work>
    </rdf:RDF>
  </metadata>
  <defs
     id="defs12" />
  <sodipodi:namedview
     inkscape:document-rotation="0"
     pagecolor="#ffffff"
     bordercolor="#666666"
     borderopacity="1"
     objecttolerance="10"
     gridtolerance="10"
     guidetolerance="10"
     inkscape:pageopacity="0"
     inkscape:pageshadow="2"
     inkscape:window-width="1920"
     inkscape:window-height="940"
     id="namedview10"
     showgrid="false"
     inkscape:snap-bbox="false"
     inkscape:zoom="47.8125"
     inkscape:cx="8.4915032"
     inkscape:cy="8"
     inkscape:window-x="0"
     inkscape:window-y="0"
     inkscape:window-maximized="1"
     inkscape:current-layer="svg8" />
  <path
     d="M 2 2 C 0.8954305 2 0 2.8954305 0 4 L 0 12 C 0 13.10457 0.8954305 14 2 14 L 14 14 C 15.10457 14 16 13.10457 16 12 L 16 4 C 16 2.8954305 15.10457 2 14 2 L 2 2 z M 2.0078125 3 L 13.992188 3 C 14.549085 3 15 3.4463508 15 3.9960938 L 15 12.003906 C 15 12.54364 14.548253 13 13.992188 13 L 2.0078125 13 C 1.4509158 13 1 12.553649 1 12.003906 L 1 3.9960938 C 1 3.4563605 1.4517471 3 2.0078125 3 z M 2 4 L 2 6 L 5 6 L 5 4 L 2 4 z M 6 4 L 6 6 L 8 6 L 8 4 L 6 4 z M 9 4 L 9 6 L 11 6 L 11 4 L 9 4 z M 12 4 L 12 6 L 14 6 L 14 4 L 12 4 z M 2 7 L 2 9 L 6 9 L 6 7 L 2 7 z M 7 7 L 7 9 L 9 9 L 9 7 L 7 7 z M 10 7 L 10 9 L 14 9 L 14 7 L 10 7 z M 2 10 L 2 12 L 5 12 L 5 10 L 2 10 z M 6 10 L 6 12 L 11 12 L 11 10 L 6 10 z M 12 10 L 12 12 L 14 12 L 14 10 L 12 10 z "
     style="fill:#536076;fill-opacity:1;fill-rule:evenodd"
     id="path2" />
</svg>
